<svg xmlns="http://www.w3.org/2000/svg" width="1000" height="360" viewBox="0 0 1000 360" role="img" aria-label="Lucas Chacon — full stack developer">
  <title>Lucas Chacon — full stack developer</title>
  <defs>
    <linearGradient id="janela" x1="0" y1="0" x2=".6" y2="1">
      <stop offset="0" stop-color="#15012e"/><stop offset="1" stop-color="#0b0018"/>
    </linearGradient>
    <linearGradient id="barra" x1="0" y1="0" x2="0" y2="1">
      <stop offset="0" stop-color="#2d0a52"/><stop offset="1" stop-color="#1d0438"/>
    </linearGradient>
    <linearGradient id="gradArt" x1="0" y1="0" x2="1" y2="1">
      <stop offset="0" stop-color="#e0c3fc"/><stop offset=".5" stop-color="#c77dff"/><stop offset="1" stop-color="#7b2cbf"/>
    </linearGradient>
    <radialGradient id="brilho" cx=".5" cy="0" r=".9">
      <stop offset="0" stop-color="#7b2cbf" stop-opacity=".28"/><stop offset="1" stop-color="#7b2cbf" stop-opacity="0"/>
    </radialGradient>
    <clipPath id="revela">
      <rect x="48" y="114" width="570" height="65">
        <animate attributeName="width" from="0" to="570" dur="1.6s" begin="0.9s" fill="freeze"/>
      </rect>
    </clipPath>
  </defs>

  <rect width="1000" height="360" rx="14" fill="url(#janela)"/>
  <rect width="1000" height="360" rx="14" fill="url(#brilho)"/>
  <path d="M14 40h972" stroke="#7b2cbf" stroke-opacity=".35"/>
  <rect x=".75" y=".75" width="998.5" height="358.5" rx="13.25" fill="none" stroke="#7b2cbf" stroke-opacity=".45"/>
  <path d="M0 14a14 14 0 0114-14h972a14 14 0 0114 14v26H0z" fill="url(#barra)"/>
  <circle cx="26" cy="20" r="5" fill="#c77dff" opacity=".95"/>
  <circle cx="45" cy="20" r="5" fill="#7b2cbf" opacity=".85"/>
  <circle cx="64" cy="20" r="5" fill="#5a189a" opacity=".85"/>
  <text x="500" y="24" font-family="DejaVu Sans Mono,Menlo,Consolas,Liberation Mono,monospace" font-size="11.5" fill="#8b7aa8" text-anchor="middle">lucas@github: ~ — zsh</text>

  <g clip-path="url(#revela)">
      <text x="48" y="124.0" font-family="DejaVu Sans Mono,Menlo,Consolas,Liberation Mono,monospace" font-size="10.0" fill="url(#gradArt)" xml:space="preserve">██╗     ██╗   ██╗ ██████╗ █████╗ ███████╗    ██████╗██╗  ██╗ █████╗  ██████╗ ██████╗ ███╗   ██╗</text>
  <text x="48" y="133.9" font-family="DejaVu Sans Mono,Menlo,Consolas,Liberation Mono,monospace" font-size="10.0" fill="url(#gradArt)" xml:space="preserve">██║     ██║   ██║██╔════╝██╔══██╗██╔════╝   ██╔════╝██║  ██║██╔══██╗██╔════╝██╔═══██╗████╗  ██║</text>
  <text x="48" y="143.8" font-family="DejaVu Sans Mono,Menlo,Consolas,Liberation Mono,monospace" font-size="10.0" fill="url(#gradArt)" xml:space="preserve">██║     ██║   ██║██║     ███████║███████╗   ██║     ███████║███████║██║     ██║   ██║██╔██╗ ██║</text>
  <text x="48" y="153.7" font-family="DejaVu Sans Mono,Menlo,Consolas,Liberation Mono,monospace" font-size="10.0" fill="url(#gradArt)" xml:space="preserve">██║     ██║   ██║██║     ██╔══██║╚════██║   ██║     ██╔══██║██╔══██║██║     ██║   ██║██║╚██╗██║</text>
  <text x="48" y="163.6" font-family="DejaVu Sans Mono,Menlo,Consolas,Liberation Mono,monospace" font-size="10.0" fill="url(#gradArt)" xml:space="preserve">███████╗╚██████╔╝╚██████╗██║  ██║███████║   ╚██████╗██║  ██║██║  ██║╚██████╗╚██████╔╝██║ ╚████║</text>
  <text x="48" y="173.5" font-family="DejaVu Sans Mono,Menlo,Consolas,Liberation Mono,monospace" font-size="10.0" fill="url(#gradArt)" xml:space="preserve">╚══════╝ ╚═════╝  ╚═════╝╚═╝  ╚═╝╚══════╝    ╚═════╝╚═╝  ╚═╝╚═╝  ╚═╝ ╚═════╝ ╚═════╝ ╚═╝  ╚═══╝</text>
  </g>
    <text x="48" y="74.0" font-family="DejaVu Sans Mono,Menlo,Consolas,Liberation Mono,monospace" font-size="13.0" xml:space="preserve"><tspan fill="#7b2cbf">┌──(</tspan><tspan fill="#c77dff">lucas@github</tspan><tspan fill="#7b2cbf">)-[</tspan><tspan fill="#e0c3fc">~</tspan><tspan fill="#7b2cbf">]</tspan></text>
  <text x="48" y="93.0" font-family="DejaVu Sans Mono,Menlo,Consolas,Liberation Mono,monospace" font-size="13.0" xml:space="preserve"><tspan fill="#7b2cbf">└─$ </tspan><tspan fill="#ffffff">whoami --banner</tspan></text>
  <text x="48" y="203.4" font-family="DejaVu Sans Mono,Menlo,Consolas,Liberation Mono,monospace" font-size="13.0" xml:space="preserve" opacity="1"><tspan fill="#7b2cbf">» </tspan><tspan fill="#9d8bb5">full stack developer, do banco de dados ao deploy</tspan><animate attributeName="opacity" dur="12.6s" repeatCount="indefinite" keyTimes="0;0.001;0.0238;0.3095;0.3333;1" values="0;0;1;1;0;0"/></text>
  <text x="48" y="203.4" font-family="DejaVu Sans Mono,Menlo,Consolas,Liberation Mono,monospace" font-size="13.0" xml:space="preserve" opacity="0"><tspan fill="#7b2cbf">» </tspan><tspan fill="#9d8bb5">construindo plataformas de ponta a ponta</tspan><animate attributeName="opacity" dur="12.6s" repeatCount="indefinite" keyTimes="0;0.3333;0.3571;0.6429;0.6667;1" values="0;0;1;1;0;0"/></text>
  <text x="48" y="203.4" font-family="DejaVu Sans Mono,Menlo,Consolas,Liberation Mono,monospace" font-size="13.0" xml:space="preserve" opacity="0"><tspan fill="#7b2cbf">» </tspan><tspan fill="#9d8bb5">produtos, não páginas</tspan><animate attributeName="opacity" dur="12.6s" repeatCount="indefinite" keyTimes="0;0.6667;0.6905;0.9762;1.0" values="0;0;1;1;0"/></text>
  <text x="48" y="232.4" font-family="DejaVu Sans Mono,Menlo,Consolas,Liberation Mono,monospace" font-size="12.0" xml:space="preserve"><tspan fill="#c77dff">  stack </tspan><tspan fill="#7b2cbf">...........</tspan><tspan fill="#9d8bb5"> react · next · fastapi · php · postgres · redis</tspan></text>
  <text x="48" y="249.4" font-family="DejaVu Sans Mono,Menlo,Consolas,Liberation Mono,monospace" font-size="12.0" xml:space="preserve"><tspan fill="#c77dff">  segurança </tspan><tspan fill="#7b2cbf">.......</tspan><tspan fill="#9d8bb5"> pós-graduando · pentest · kali linux</tspan></text>
  <text x="48" y="266.4" font-family="DejaVu Sans Mono,Menlo,Consolas,Liberation Mono,monospace" font-size="12.0" xml:space="preserve"><tspan fill="#c77dff">  local </tspan><tspan fill="#7b2cbf">...........</tspan><tspan fill="#9d8bb5"> Rio de Janeiro, BR · remoto ou híbrido</tspan></text>
  <text x="48" y="295.4" font-family="DejaVu Sans Mono,Menlo,Consolas,Liberation Mono,monospace" font-size="13.0" xml:space="preserve"><tspan fill="#7b2cbf">┌──(</tspan><tspan fill="#c77dff">lucas@github</tspan><tspan fill="#7b2cbf">)-[</tspan><tspan fill="#e0c3fc">~</tspan><tspan fill="#7b2cbf">]</tspan></text>
  <text x="48" y="314.4" font-family="DejaVu Sans Mono,Menlo,Consolas,Liberation Mono,monospace" font-size="13.0" xml:space="preserve"><tspan fill="#7b2cbf">└─$ </tspan></text>

  <path d="M622 62V318" stroke="#7b2cbf" stroke-opacity=".22"/>
  <text x="811" y="78" font-family="DejaVu Sans Mono,Menlo,Consolas,Liberation Mono,monospace" font-size="11.5"
        fill="#8b7aa8" text-anchor="middle">aponte a câmera</text>
  <g opacity="1">
    <rect x="721.4" y="92" width="179.2" height="179.2" rx="10" fill="#efe6fb"/>
    <g transform="translate(741.4,112)"><rect x="0.0" y="0.0" width="33.6" height="4.8" fill="#1a0033"/><rect x="38.4" y="0.0" width="4.8" height="4.8" fill="#1a0033"/><rect x="52.8" y="0.0" width="4.8" height="4.8" fill="#1a0033"/><rect x="62.4" y="0.0" width="9.6" height="4.8" fill="#1a0033"/><rect x="81.6" y="0.0" width="9.6" height="4.8" fill="#1a0033"/><rect x="105.6" y="0.0" width="33.6" height="4.8" fill="#1a0033"/><rect x="0.0" y="4.8" width="4.8" height="4.8" fill="#1a0033"/><rect x="28.8" y="4.8" width="4.8" height="4.8" fill="#1a0033"/><rect x="38.4" y="4.8" width="14.4" height="4.8" fill="#1a0033"/><rect x="57.6" y="4.8" width="9.6" height="4.8" fill="#1a0033"/><rect x="76.8" y="4.8" width="4.8" height="4.8" fill="#1a0033"/><rect x="86.4" y="4.8" width="14.4" height="4.8" fill="#1a0033"/><rect x="105.6" y="4.8" width="4.8" height="4.8" fill="#1a0033"/><rect x="134.4" y="4.8" width="4.8" height="4.8" fill="#1a0033"/><rect x="0.0" y="9.6" width="4.8" height="4.8" fill="#1a0033"/><rect x="9.6" y="9.6" width="14.4" height="4.8" fill="#1a0033"/><rect x="28.8" y="9.6" width="4.8" height="4.8" fill="#1a0033"/><rect x="38.4" y="9.6" width="4.8" height="4.8" fill="#1a0033"/><rect x="57.6" y="9.6" width="14.4" height="4.8" fill="#1a0033"/><rect x="76.8" y="9.6" width="4.8" height="4.8" fill="#1a0033"/><rect x="91.2" y="9.6" width="9.6" height="4.8" fill="#1a0033"/><rect x="105.6" y="9.6" width="4.8" height="4.8" fill="#1a0033"/><rect x="115.2" y="9.6" width="14.4" height="4.8" fill="#1a0033"/><rect x="134.4" y="9.6" width="4.8" height="4.8" fill="#1a0033"/><rect x="0.0" y="14.4" width="4.8" height="4.8" fill="#1a0033"/><rect x="9.6" y="14.4" width="14.4" height="4.8" fill="#1a0033"/><rect x="28.8" y="14.4" width="4.8" height="4.8" fill="#1a0033"/><rect x="62.4" y="14.4" width="4.8" height="4.8" fill="#1a0033"/><rect x="76.8" y="14.4" width="14.4" height="4.8" fill="#1a0033"/><rect x="105.6" y="14.4" width="4.8" height="4.8" fill="#1a0033"/><rect x="115.2" y="14.4" width="14.4" height="4.8" fill="#1a0033"/><rect x="134.4" y="14.4" width="4.8" height="4.8" fill="#1a0033"/><rect x="0.0" y="19.2" width="4.8" height="4.8" fill="#1a0033"/><rect x="9.6" y="19.2" width="14.4" height="4.8" fill="#1a0033"/><rect x="28.8" y="19.2" width="4.8" height="4.8" fill="#1a0033"/><rect x="38.4" y="19.2" width="19.2" height="4.8" fill="#1a0033"/><rect x="62.4" y="19.2" width="9.6" height="4.8" fill="#1a0033"/><rect x="76.8" y="19.2" width="4.8" height="4.8" fill="#1a0033"/><rect x="86.4" y="19.2" width="9.6" height="4.8" fill="#1a0033"/><rect x="105.6" y="19.2" width="4.8" height="4.8" fill="#1a0033"/><rect x="115.2" y="19.2" width="14.4" height="4.8" fill="#1a0033"/><rect x="134.4" y="19.2" width="4.8" height="4.8" fill="#1a0033"/><rect x="0.0" y="24.0" width="4.8" height="4.8" fill="#1a0033"/><rect x="28.8" y="24.0" width="4.8" height="4.8" fill="#1a0033"/><rect x="43.2" y="24.0" width="4.8" height="4.8" fill="#1a0033"/><rect x="52.8" y="24.0" width="4.8" height="4.8" fill="#1a0033"/><rect x="67.2" y="24.0" width="4.8" height="4.8" fill="#1a0033"/><rect x="76.8" y="24.0" width="9.6" height="4.8" fill="#1a0033"/><rect x="105.6" y="24.0" width="4.8" height="4.8" fill="#1a0033"/><rect x="134.4" y="24.0" width="4.8" height="4.8" fill="#1a0033"/><rect x="0.0" y="28.8" width="33.6" height="4.8" fill="#1a0033"/><rect x="38.4" y="28.8" width="4.8" height="4.8" fill="#1a0033"/><rect x="48.0" y="28.8" width="4.8" height="4.8" fill="#1a0033"/><rect x="57.6" y="28.8" width="4.8" height="4.8" fill="#1a0033"/><rect x="67.2" y="28.8" width="4.8" height="4.8" fill="#1a0033"/><rect x="76.8" y="28.8" width="4.8" height="4.8" fill="#1a0033"/><rect x="86.4" y="28.8" width="4.8" height="4.8" fill="#1a0033"/><rect x="96.0" y="28.8" width="4.8" height="4.8" fill="#1a0033"/><rect x="105.6" y="28.8" width="33.6" height="4.8" fill="#1a0033"/><rect x="57.6" y="33.6" width="19.2" height="4.8" fill="#1a0033"/><rect x="91.2" y="33.6" width="4.8" height="4.8" fill="#1a0033"/><rect x="0.0" y="38.4" width="4.8" height="4.8" fill="#1a0033"/><rect x="14.4" y="38.4" width="38.4" height="4.8" fill="#1a0033"/><rect x="72.0" y="38.4" width="4.8" height="4.8" fill="#1a0033"/><rect x="81.6" y="38.4" width="4.8" height="4.8" fill="#1a0033"/><rect x="100.8" y="38.4" width="4.8" height="4.8" fill="#1a0033"/><rect x="115.2" y="38.4" width="4.8" height="4.8" fill="#1a0033"/><rect x="124.8" y="38.4" width="14.4" height="4.8" fill="#1a0033"/><rect x="9.6" y="43.2" width="4.8" height="4.8" fill="#1a0033"/><rect x="19.2" y="43.2" width="9.6" height="4.8" fill="#1a0033"/><rect x="43.2" y="43.2" width="4.8" height="4.8" fill="#1a0033"/><rect x="57.6" y="43.2" width="19.2" height="4.8" fill="#1a0033"/><rect x="86.4" y="43.2" width="9.6" height="4.8" fill="#1a0033"/><rect x="110.4" y="43.2" width="9.6" height="4.8" fill="#1a0033"/><rect x="124.8" y="43.2" width="9.6" height="4.8" fill="#1a0033"/><rect x="9.6" y="48.0" width="9.6" height="4.8" fill="#1a0033"/><rect x="24.0" y="48.0" width="19.2" height="4.8" fill="#1a0033"/><rect x="48.0" y="48.0" width="19.2" height="4.8" fill="#1a0033"/><rect x="72.0" y="48.0" width="9.6" height="4.8" fill="#1a0033"/><rect x="110.4" y="48.0" width="9.6" height="4.8" fill="#1a0033"/><rect x="124.8" y="48.0" width="4.8" height="4.8" fill="#1a0033"/><rect x="4.8" y="52.8" width="4.8" height="4.8" fill="#1a0033"/><rect x="24.0" y="52.8" width="4.8" height="4.8" fill="#1a0033"/><rect x="38.4" y="52.8" width="4.8" height="4.8" fill="#1a0033"/><rect x="57.6" y="52.8" width="4.8" height="4.8" fill="#1a0033"/><rect x="81.6" y="52.8" width="9.6" height="4.8" fill="#1a0033"/><rect x="96.0" y="52.8" width="4.8" height="4.8" fill="#1a0033"/><rect x="115.2" y="52.8" width="9.6" height="4.8" fill="#1a0033"/><rect x="134.4" y="52.8" width="4.8" height="4.8" fill="#1a0033"/><rect x="0.0" y="57.6" width="9.6" height="4.8" fill="#1a0033"/><rect x="14.4" y="57.6" width="4.8" height="4.8" fill="#1a0033"/><rect x="24.0" y="57.6" width="9.6" height="4.8" fill="#1a0033"/><rect x="38.4" y="57.6" width="4.8" height="4.8" fill="#1a0033"/><rect x="48.0" y="57.6" width="9.6" height="4.8" fill="#1a0033"/><rect x="72.0" y="57.6" width="9.6" height="4.8" fill="#1a0033"/><rect x="91.2" y="57.6" width="9.6" height="4.8" fill="#1a0033"/><rect x="105.6" y="57.6" width="4.8" height="4.8" fill="#1a0033"/><rect x="134.4" y="57.6" width="4.8" height="4.8" fill="#1a0033"/><rect x="4.8" y="62.4" width="24.0" height="4.8" fill="#1a0033"/><rect x="33.6" y="62.4" width="4.8" height="4.8" fill="#1a0033"/><rect x="48.0" y="62.4" width="43.2" height="4.8" fill="#1a0033"/><rect x="105.6" y="62.4" width="33.6" height="4.8" fill="#1a0033"/><rect x="9.6" y="67.2" width="4.8" height="4.8" fill="#1a0033"/><rect x="28.8" y="67.2" width="4.8" height="4.8" fill="#1a0033"/><rect x="38.4" y="67.2" width="14.4" height="4.8" fill="#1a0033"/><rect x="57.6" y="67.2" width="9.6" height="4.8" fill="#1a0033"/><rect x="72.0" y="67.2" width="9.6" height="4.8" fill="#1a0033"/><rect x="86.4" y="67.2" width="9.6" height="4.8" fill="#1a0033"/><rect x="124.8" y="67.2" width="4.8" height="4.8" fill="#1a0033"/><rect x="134.4" y="67.2" width="4.8" height="4.8" fill="#1a0033"/><rect x="0.0" y="72.0" width="4.8" height="4.8" fill="#1a0033"/><rect x="14.4" y="72.0" width="4.8" height="4.8" fill="#1a0033"/><rect x="24.0" y="72.0" width="4.8" height="4.8" fill="#1a0033"/><rect x="38.4" y="72.0" width="9.6" height="4.8" fill="#1a0033"/><rect x="52.8" y="72.0" width="9.6" height="4.8" fill="#1a0033"/><rect x="72.0" y="72.0" width="4.8" height="4.8" fill="#1a0033"/><rect x="100.8" y="72.0" width="4.8" height="4.8" fill="#1a0033"/><rect x="115.2" y="72.0" width="4.8" height="4.8" fill="#1a0033"/><rect x="124.8" y="72.0" width="4.8" height="4.8" fill="#1a0033"/><rect x="134.4" y="72.0" width="4.8" height="4.8" fill="#1a0033"/><rect x="0.0" y="76.8" width="4.8" height="4.8" fill="#1a0033"/><rect x="14.4" y="76.8" width="28.8" height="4.8" fill="#1a0033"/><rect x="48.0" y="76.8" width="4.8" height="4.8" fill="#1a0033"/><rect x="62.4" y="76.8" width="4.8" height="4.8" fill="#1a0033"/><rect x="72.0" y="76.8" width="9.6" height="4.8" fill="#1a0033"/><rect x="96.0" y="76.8" width="4.8" height="4.8" fill="#1a0033"/><rect x="120.0" y="76.8" width="4.8" height="4.8" fill="#1a0033"/><rect x="0.0" y="81.6" width="4.8" height="4.8" fill="#1a0033"/><rect x="9.6" y="81.6" width="4.8" height="4.8" fill="#1a0033"/><rect x="19.2" y="81.6" width="4.8" height="4.8" fill="#1a0033"/><rect x="43.2" y="81.6" width="9.6" height="4.8" fill="#1a0033"/><rect x="67.2" y="81.6" width="9.6" height="4.8" fill="#1a0033"/><rect x="81.6" y="81.6" width="4.8" height="4.8" fill="#1a0033"/><rect x="91.2" y="81.6" width="9.6" height="4.8" fill="#1a0033"/><rect x="115.2" y="81.6" width="4.8" height="4.8" fill="#1a0033"/><rect x="124.8" y="81.6" width="9.6" height="4.8" fill="#1a0033"/><rect x="0.0" y="86.4" width="9.6" height="4.8" fill="#1a0033"/><rect x="24.0" y="86.4" width="9.6" height="4.8" fill="#1a0033"/><rect x="38.4" y="86.4" width="4.8" height="4.8" fill="#1a0033"/><rect x="48.0" y="86.4" width="9.6" height="4.8" fill="#1a0033"/><rect x="62.4" y="86.4" width="19.2" height="4.8" fill="#1a0033"/><rect x="91.2" y="86.4" width="4.8" height="4.8" fill="#1a0033"/><rect x="120.0" y="86.4" width="4.8" height="4.8" fill="#1a0033"/><rect x="134.4" y="86.4" width="4.8" height="4.8" fill="#1a0033"/><rect x="0.0" y="91.2" width="14.4" height="4.8" fill="#1a0033"/><rect x="24.0" y="91.2" width="4.8" height="4.8" fill="#1a0033"/><rect x="38.4" y="91.2" width="9.6" height="4.8" fill="#1a0033"/><rect x="52.8" y="91.2" width="28.8" height="4.8" fill="#1a0033"/><rect x="86.4" y="91.2" width="9.6" height="4.8" fill="#1a0033"/><rect x="110.4" y="91.2" width="4.8" height="4.8" fill="#1a0033"/><rect x="120.0" y="91.2" width="9.6" height="4.8" fill="#1a0033"/><rect x="0.0" y="96.0" width="9.6" height="4.8" fill="#1a0033"/><rect x="14.4" y="96.0" width="4.8" height="4.8" fill="#1a0033"/><rect x="28.8" y="96.0" width="9.6" height="4.8" fill="#1a0033"/><rect x="52.8" y="96.0" width="4.8" height="4.8" fill="#1a0033"/><rect x="67.2" y="96.0" width="4.8" height="4.8" fill="#1a0033"/><rect x="76.8" y="96.0" width="9.6" height="4.8" fill="#1a0033"/><rect x="96.0" y="96.0" width="38.4" height="4.8" fill="#1a0033"/><rect x="38.4" y="100.8" width="9.6" height="4.8" fill="#1a0033"/><rect x="52.8" y="100.8" width="9.6" height="4.8" fill="#1a0033"/><rect x="72.0" y="100.8" width="9.6" height="4.8" fill="#1a0033"/><rect x="86.4" y="100.8" width="4.8" height="4.8" fill="#1a0033"/><rect x="96.0" y="100.8" width="4.8" height="4.8" fill="#1a0033"/><rect x="115.2" y="100.8" width="9.6" height="4.8" fill="#1a0033"/><rect x="0.0" y="105.6" width="33.6" height="4.8" fill="#1a0033"/><rect x="38.4" y="105.6" width="14.4" height="4.8" fill="#1a0033"/><rect x="57.6" y="105.6" width="4.8" height="4.8" fill="#1a0033"/><rect x="67.2" y="105.6" width="9.6" height="4.8" fill="#1a0033"/><rect x="81.6" y="105.6" width="4.8" height="4.8" fill="#1a0033"/><rect x="91.2" y="105.6" width="9.6" height="4.8" fill="#1a0033"/><rect x="105.6" y="105.6" width="4.8" height="4.8" fill="#1a0033"/><rect x="115.2" y="105.6" width="9.6" height="4.8" fill="#1a0033"/><rect x="0.0" y="110.4" width="4.8" height="4.8" fill="#1a0033"/><rect x="28.8" y="110.4" width="4.8" height="4.8" fill="#1a0033"/><rect x="38.4" y="110.4" width="14.4" height="4.8" fill="#1a0033"/><rect x="57.6" y="110.4" width="4.8" height="4.8" fill="#1a0033"/><rect x="76.8" y="110.4" width="9.6" height="4.8" fill="#1a0033"/><rect x="96.0" y="110.4" width="4.8" height="4.8" fill="#1a0033"/><rect x="115.2" y="110.4" width="4.8" height="4.8" fill="#1a0033"/><rect x="0.0" y="115.2" width="4.8" height="4.8" fill="#1a0033"/><rect x="9.6" y="115.2" width="14.4" height="4.8" fill="#1a0033"/><rect x="28.8" y="115.2" width="4.8" height="4.8" fill="#1a0033"/><rect x="38.4" y="115.2" width="9.6" height="4.8" fill="#1a0033"/><rect x="62.4" y="115.2" width="9.6" height="4.8" fill="#1a0033"/><rect x="86.4" y="115.2" width="38.4" height="4.8" fill="#1a0033"/><rect x="129.6" y="115.2" width="4.8" height="4.8" fill="#1a0033"/><rect x="0.0" y="120.0" width="4.8" height="4.8" fill="#1a0033"/><rect x="9.6" y="120.0" width="14.4" height="4.8" fill="#1a0033"/><rect x="28.8" y="120.0" width="4.8" height="4.8" fill="#1a0033"/><rect x="38.4" y="120.0" width="9.6" height="4.8" fill="#1a0033"/><rect x="57.6" y="120.0" width="19.2" height="4.8" fill="#1a0033"/><rect x="81.6" y="120.0" width="9.6" height="4.8" fill="#1a0033"/><rect x="100.8" y="120.0" width="4.8" height="4.8" fill="#1a0033"/><rect x="134.4" y="120.0" width="4.8" height="4.8" fill="#1a0033"/><rect x="0.0" y="124.8" width="4.8" height="4.8" fill="#1a0033"/><rect x="9.6" y="124.8" width="14.4" height="4.8" fill="#1a0033"/><rect x="28.8" y="124.8" width="4.8" height="4.8" fill="#1a0033"/><rect x="43.2" y="124.8" width="9.6" height="4.8" fill="#1a0033"/><rect x="57.6" y="124.8" width="4.8" height="4.8" fill="#1a0033"/><rect x="67.2" y="124.8" width="9.6" height="4.8" fill="#1a0033"/><rect x="96.0" y="124.8" width="9.6" height="4.8" fill="#1a0033"/><rect x="110.4" y="124.8" width="9.6" height="4.8" fill="#1a0033"/><rect x="124.8" y="124.8" width="14.4" height="4.8" fill="#1a0033"/><rect x="0.0" y="129.6" width="4.8" height="4.8" fill="#1a0033"/><rect x="28.8" y="129.6" width="4.8" height="4.8" fill="#1a0033"/><rect x="43.2" y="129.6" width="4.8" height="4.8" fill="#1a0033"/><rect x="52.8" y="129.6" width="9.6" height="4.8" fill="#1a0033"/><rect x="72.0" y="129.6" width="4.8" height="4.8" fill="#1a0033"/><rect x="115.2" y="129.6" width="14.4" height="4.8" fill="#1a0033"/><rect x="134.4" y="129.6" width="4.8" height="4.8" fill="#1a0033"/><rect x="0.0" y="134.4" width="33.6" height="4.8" fill="#1a0033"/><rect x="38.4" y="134.4" width="4.8" height="4.8" fill="#1a0033"/><rect x="48.0" y="134.4" width="14.4" height="4.8" fill="#1a0033"/><rect x="72.0" y="134.4" width="9.6" height="4.8" fill="#1a0033"/><rect x="86.4" y="134.4" width="14.4" height="4.8" fill="#1a0033"/><rect x="110.4" y="134.4" width="14.4" height="4.8" fill="#1a0033"/></g>
    <animate attributeName="opacity" values="0;1" dur="0.5s" begin="2.4s" fill="freeze"/>
  </g>
  <text x="811" y="297" font-family="DejaVu Sans Mono,Menlo,Consolas,Liberation Mono,monospace" font-size="12.5"
        fill="#c77dff" text-anchor="middle">portfólio</text>

  <path d="M0 330h1000v16a14 14 0 01-14 14H14a14 14 0 01-14-14z" fill="#1d0438"/>
  <path d="M0 330h1000" stroke="#7b2cbf" stroke-opacity=".3"/>
  <rect x="14" y="337" width="54" height="16" rx="4" fill="#7b2cbf"/>
  <text x="41.0" y="349" font-family="DejaVu Sans Mono,Menlo,Consolas,Liberation Mono,monospace" font-size="10.5" font-weight="bold"
        fill="#ffffff" text-anchor="middle">main</text>
  <text x="80" y="349" font-family="DejaVu Sans Mono,Menlo,Consolas,Liberation Mono,monospace" font-size="11"
        fill="#8b7aa8">~/lucas-chacon</text>
  <g stroke="#d97757" stroke-width="2" stroke-linecap="round"><path d="M823.80 343.37L823.80 337.60"/><path d="M824.61 343.59L826.24 340.77"/><path d="M825.21 344.19L830.21 341.30"/><path d="M825.43 345.00L828.68 345.00"/><path d="M825.21 345.81L830.21 348.70"/><path d="M824.61 346.41L826.24 349.23"/><path d="M823.80 346.63L823.80 352.40"/><path d="M822.99 346.41L821.36 349.23"/><path d="M822.39 345.81L817.39 348.70"/><path d="M822.17 345.00L818.92 345.00"/><path d="M822.39 344.19L817.39 341.30"/><path d="M822.99 343.59L821.36 340.77"/></g>
  <text x="982" y="349" font-family="DejaVu Sans Mono,Menlo,Consolas,Liberation Mono,monospace" font-size="11"
        fill="#8b7aa8" text-anchor="end">built with claude code</text>

  <rect x="79" y="303" width="8" height="15" fill="#c77dff" opacity=".85">
    <animate attributeName="opacity" values=".85;.85;0;0" keyTimes="0;.49;.5;1" dur="1.1s" repeatCount="indefinite"/>
  </rect>
</svg>
